<mxfile host="Electron" modified="2024-03-20T14:44:30.295Z" agent="Mozilla/5.0 (Windows NT 10.0; Win64; x64) AppleWebKit/537.36 (KHTML, like Gecko) draw.io/24.0.4 Chrome/120.0.6099.109 Electron/28.1.0 Safari/537.36" etag="MaZBupuW-6ZDmFbv3BOE" version="24.0.4" type="device">
  <diagram name="Page-1" id="hXlgK_oxKrTHGd4o_7Iv">
    <mxGraphModel dx="2073" dy="-134" grid="1" gridSize="10" guides="1" tooltips="1" connect="1" arrows="1" fold="1" page="1" pageScale="1" pageWidth="827" pageHeight="1169" math="0" shadow="0">
      <root>
        <mxCell id="0" />
        <mxCell id="1" parent="0" />
        <mxCell id="zdYyL7F6LFvU2UZnt1zR-1" value="" style="edgeStyle=orthogonalEdgeStyle;rounded=0;orthogonalLoop=1;jettySize=auto;html=1;" parent="1" source="zdYyL7F6LFvU2UZnt1zR-2" target="zdYyL7F6LFvU2UZnt1zR-6" edge="1">
          <mxGeometry relative="1" as="geometry" />
        </mxCell>
        <mxCell id="zdYyL7F6LFvU2UZnt1zR-2" value="Start" style="rounded=1;whiteSpace=wrap;html=1;fillColor=#83FF63;" parent="1" vertex="1">
          <mxGeometry x="435" y="1200" width="130" height="60" as="geometry" />
        </mxCell>
        <mxCell id="zdYyL7F6LFvU2UZnt1zR-3" style="edgeStyle=orthogonalEdgeStyle;rounded=0;orthogonalLoop=1;jettySize=auto;html=1;exitX=0.5;exitY=1;exitDx=0;exitDy=0;" parent="1" source="zdYyL7F6LFvU2UZnt1zR-6" target="zdYyL7F6LFvU2UZnt1zR-9" edge="1">
          <mxGeometry relative="1" as="geometry" />
        </mxCell>
        <mxCell id="zdYyL7F6LFvU2UZnt1zR-4" style="edgeStyle=orthogonalEdgeStyle;rounded=0;orthogonalLoop=1;jettySize=auto;html=1;" parent="1" source="zdYyL7F6LFvU2UZnt1zR-6" target="zdYyL7F6LFvU2UZnt1zR-11" edge="1">
          <mxGeometry relative="1" as="geometry" />
        </mxCell>
        <mxCell id="zdYyL7F6LFvU2UZnt1zR-5" style="edgeStyle=orthogonalEdgeStyle;rounded=0;orthogonalLoop=1;jettySize=auto;html=1;entryX=0.5;entryY=0;entryDx=0;entryDy=0;" parent="1" source="zdYyL7F6LFvU2UZnt1zR-6" target="zdYyL7F6LFvU2UZnt1zR-12" edge="1">
          <mxGeometry relative="1" as="geometry">
            <Array as="points">
              <mxPoint x="500" y="1380" />
              <mxPoint x="650" y="1380" />
            </Array>
          </mxGeometry>
        </mxCell>
        <mxCell id="zdYyL7F6LFvU2UZnt1zR-6" value="Main Menu" style="rounded=1;whiteSpace=wrap;html=1;" parent="1" vertex="1">
          <mxGeometry x="435" y="1300" width="130" height="60" as="geometry" />
        </mxCell>
        <mxCell id="zdYyL7F6LFvU2UZnt1zR-7" style="edgeStyle=orthogonalEdgeStyle;rounded=0;orthogonalLoop=1;jettySize=auto;html=1;entryX=0;entryY=0.5;entryDx=0;entryDy=0;" parent="1" source="zdYyL7F6LFvU2UZnt1zR-9" target="zdYyL7F6LFvU2UZnt1zR-6" edge="1">
          <mxGeometry relative="1" as="geometry">
            <Array as="points">
              <mxPoint x="255" y="1430" />
              <mxPoint x="255" y="1330" />
            </Array>
          </mxGeometry>
        </mxCell>
        <mxCell id="zdYyL7F6LFvU2UZnt1zR-8" style="edgeStyle=orthogonalEdgeStyle;rounded=0;orthogonalLoop=1;jettySize=auto;html=1;entryX=0.5;entryY=0;entryDx=0;entryDy=0;" parent="1" source="zdYyL7F6LFvU2UZnt1zR-9" target="zdYyL7F6LFvU2UZnt1zR-13" edge="1">
          <mxGeometry relative="1" as="geometry" />
        </mxCell>
        <mxCell id="zdYyL7F6LFvU2UZnt1zR-9" value="Tutorial" style="rounded=1;whiteSpace=wrap;html=1;" parent="1" vertex="1">
          <mxGeometry x="285" y="1400" width="130" height="60" as="geometry" />
        </mxCell>
        <mxCell id="zdYyL7F6LFvU2UZnt1zR-10" style="edgeStyle=orthogonalEdgeStyle;rounded=0;orthogonalLoop=1;jettySize=auto;html=1;entryX=0.5;entryY=0;entryDx=0;entryDy=0;" parent="1" source="zdYyL7F6LFvU2UZnt1zR-11" target="zdYyL7F6LFvU2UZnt1zR-17" edge="1">
          <mxGeometry relative="1" as="geometry" />
        </mxCell>
        <mxCell id="zdYyL7F6LFvU2UZnt1zR-11" value="Start Game" style="rounded=1;whiteSpace=wrap;html=1;" parent="1" vertex="1">
          <mxGeometry x="435" y="1400" width="130" height="60" as="geometry" />
        </mxCell>
        <mxCell id="zdYyL7F6LFvU2UZnt1zR-12" value="Quit (Exits Game)" style="rounded=1;whiteSpace=wrap;html=1;fillColor=#FF928A;" parent="1" vertex="1">
          <mxGeometry x="585" y="1400" width="130" height="60" as="geometry" />
        </mxCell>
        <mxCell id="zdYyL7F6LFvU2UZnt1zR-13" value="Quit (Exits Game)" style="rounded=1;whiteSpace=wrap;html=1;fillColor=#FF928A;" parent="1" vertex="1">
          <mxGeometry x="285" y="1500" width="130" height="60" as="geometry" />
        </mxCell>
        <mxCell id="zdYyL7F6LFvU2UZnt1zR-14" style="edgeStyle=orthogonalEdgeStyle;rounded=0;orthogonalLoop=1;jettySize=auto;html=1;entryX=0.5;entryY=0;entryDx=0;entryDy=0;" parent="1" source="zdYyL7F6LFvU2UZnt1zR-17" target="zdYyL7F6LFvU2UZnt1zR-19" edge="1">
          <mxGeometry relative="1" as="geometry" />
        </mxCell>
        <mxCell id="zdYyL7F6LFvU2UZnt1zR-15" style="edgeStyle=orthogonalEdgeStyle;rounded=0;orthogonalLoop=1;jettySize=auto;html=1;entryX=0.5;entryY=0;entryDx=0;entryDy=0;" parent="1" source="zdYyL7F6LFvU2UZnt1zR-17" target="zdYyL7F6LFvU2UZnt1zR-18" edge="1">
          <mxGeometry relative="1" as="geometry">
            <Array as="points">
              <mxPoint x="500" y="1660" />
              <mxPoint x="350" y="1660" />
            </Array>
          </mxGeometry>
        </mxCell>
        <mxCell id="zdYyL7F6LFvU2UZnt1zR-16" style="edgeStyle=orthogonalEdgeStyle;rounded=0;orthogonalLoop=1;jettySize=auto;html=1;" parent="1" source="zdYyL7F6LFvU2UZnt1zR-17" target="zdYyL7F6LFvU2UZnt1zR-20" edge="1">
          <mxGeometry relative="1" as="geometry">
            <Array as="points">
              <mxPoint x="500" y="1660" />
              <mxPoint x="650" y="1660" />
            </Array>
          </mxGeometry>
        </mxCell>
        <mxCell id="zdYyL7F6LFvU2UZnt1zR-17" value="Take control of the player" style="rounded=1;whiteSpace=wrap;html=1;" parent="1" vertex="1">
          <mxGeometry x="435" y="1580" width="130" height="60" as="geometry" />
        </mxCell>
        <mxCell id="zdYyL7F6LFvU2UZnt1zR-18" value="Player Health" style="rounded=1;whiteSpace=wrap;html=1;" parent="1" vertex="1">
          <mxGeometry x="290" y="1880" width="130" height="60" as="geometry" />
        </mxCell>
        <mxCell id="zdYyL7F6LFvU2UZnt1zR-19" value="Player Movement" style="rounded=1;whiteSpace=wrap;html=1;" parent="1" vertex="1">
          <mxGeometry x="435" y="1680" width="130" height="60" as="geometry" />
        </mxCell>
        <mxCell id="zdYyL7F6LFvU2UZnt1zR-20" value="Player Attack" style="rounded=1;whiteSpace=wrap;html=1;" parent="1" vertex="1">
          <mxGeometry x="585" y="1680" width="130" height="60" as="geometry" />
        </mxCell>
        <mxCell id="zdYyL7F6LFvU2UZnt1zR-21" style="edgeStyle=orthogonalEdgeStyle;rounded=0;orthogonalLoop=1;jettySize=auto;html=1;entryX=0.5;entryY=0;entryDx=0;entryDy=0;" parent="1" source="zdYyL7F6LFvU2UZnt1zR-24" target="zdYyL7F6LFvU2UZnt1zR-28" edge="1">
          <mxGeometry relative="1" as="geometry" />
        </mxCell>
        <mxCell id="zdYyL7F6LFvU2UZnt1zR-22" style="edgeStyle=orthogonalEdgeStyle;rounded=0;orthogonalLoop=1;jettySize=auto;html=1;entryX=0.5;entryY=0;entryDx=0;entryDy=0;" parent="1" source="zdYyL7F6LFvU2UZnt1zR-24" target="zdYyL7F6LFvU2UZnt1zR-27" edge="1">
          <mxGeometry relative="1" as="geometry">
            <Array as="points">
              <mxPoint x="355" y="2060" />
              <mxPoint x="195" y="2060" />
            </Array>
          </mxGeometry>
        </mxCell>
        <mxCell id="zdYyL7F6LFvU2UZnt1zR-23" style="edgeStyle=orthogonalEdgeStyle;rounded=0;orthogonalLoop=1;jettySize=auto;html=1;entryX=0.5;entryY=0;entryDx=0;entryDy=0;" parent="1" source="zdYyL7F6LFvU2UZnt1zR-24" target="zdYyL7F6LFvU2UZnt1zR-29" edge="1">
          <mxGeometry relative="1" as="geometry">
            <Array as="points">
              <mxPoint x="355" y="2060" />
              <mxPoint x="505" y="2060" />
            </Array>
          </mxGeometry>
        </mxCell>
        <mxCell id="zdYyL7F6LFvU2UZnt1zR-24" value="Death Screen" style="rounded=1;whiteSpace=wrap;html=1;" parent="1" vertex="1">
          <mxGeometry x="290" y="1980" width="130" height="60" as="geometry" />
        </mxCell>
        <mxCell id="zdYyL7F6LFvU2UZnt1zR-25" value="" style="endArrow=classic;html=1;rounded=0;exitX=0.5;exitY=1;exitDx=0;exitDy=0;entryX=0.5;entryY=0;entryDx=0;entryDy=0;" parent="1" source="zdYyL7F6LFvU2UZnt1zR-18" target="zdYyL7F6LFvU2UZnt1zR-24" edge="1">
          <mxGeometry relative="1" as="geometry">
            <mxPoint x="550" y="2030" as="sourcePoint" />
            <mxPoint x="650" y="2030" as="targetPoint" />
          </mxGeometry>
        </mxCell>
        <mxCell id="zdYyL7F6LFvU2UZnt1zR-26" value="Health = 0" style="edgeLabel;resizable=0;html=1;;align=center;verticalAlign=middle;" parent="zdYyL7F6LFvU2UZnt1zR-25" connectable="0" vertex="1">
          <mxGeometry relative="1" as="geometry" />
        </mxCell>
        <mxCell id="zdYyL7F6LFvU2UZnt1zR-27" value="Play Again (Starts Game Again)&amp;nbsp;" style="rounded=1;whiteSpace=wrap;html=1;" parent="1" vertex="1">
          <mxGeometry x="130" y="2078" width="130" height="60" as="geometry" />
        </mxCell>
        <mxCell id="zdYyL7F6LFvU2UZnt1zR-28" value="Tutorial (Sends Player To Tutorial Screen)" style="rounded=1;whiteSpace=wrap;html=1;" parent="1" vertex="1">
          <mxGeometry x="290" y="2078" width="130" height="60" as="geometry" />
        </mxCell>
        <mxCell id="zdYyL7F6LFvU2UZnt1zR-29" value="Quit" style="rounded=1;whiteSpace=wrap;html=1;fillColor=#FF928A;" parent="1" vertex="1">
          <mxGeometry x="440" y="2078" width="130" height="60" as="geometry" />
        </mxCell>
        <mxCell id="zdYyL7F6LFvU2UZnt1zR-30" value="Enemy Spawner" style="rounded=1;whiteSpace=wrap;html=1;" parent="1" vertex="1">
          <mxGeometry x="985" y="1580" width="130" height="60" as="geometry" />
        </mxCell>
        <mxCell id="zdYyL7F6LFvU2UZnt1zR-31" style="edgeStyle=orthogonalEdgeStyle;rounded=0;orthogonalLoop=1;jettySize=auto;html=1;entryX=0.5;entryY=0;entryDx=0;entryDy=0;" parent="1" source="zdYyL7F6LFvU2UZnt1zR-32" target="zdYyL7F6LFvU2UZnt1zR-35" edge="1">
          <mxGeometry relative="1" as="geometry" />
        </mxCell>
        <mxCell id="zdYyL7F6LFvU2UZnt1zR-32" value="Enemy" style="rounded=1;whiteSpace=wrap;html=1;" parent="1" vertex="1">
          <mxGeometry x="985" y="1680" width="130" height="60" as="geometry" />
        </mxCell>
        <mxCell id="zdYyL7F6LFvU2UZnt1zR-33" value="" style="endArrow=classic;html=1;rounded=0;exitX=0.5;exitY=1;exitDx=0;exitDy=0;entryX=0.5;entryY=0;entryDx=0;entryDy=0;" parent="1" source="zdYyL7F6LFvU2UZnt1zR-30" target="zdYyL7F6LFvU2UZnt1zR-32" edge="1">
          <mxGeometry relative="1" as="geometry">
            <mxPoint x="1025" y="1740" as="sourcePoint" />
            <mxPoint x="1125" y="1740" as="targetPoint" />
          </mxGeometry>
        </mxCell>
        <mxCell id="zdYyL7F6LFvU2UZnt1zR-34" value="Enemy Spawn Interval &amp;amp; Spawn Radius" style="edgeLabel;resizable=0;html=1;;align=center;verticalAlign=middle;" parent="zdYyL7F6LFvU2UZnt1zR-33" connectable="0" vertex="1">
          <mxGeometry relative="1" as="geometry" />
        </mxCell>
        <mxCell id="zdYyL7F6LFvU2UZnt1zR-35" value="Enemy Follow Player" style="rounded=1;whiteSpace=wrap;html=1;" parent="1" vertex="1">
          <mxGeometry x="985" y="1780" width="130" height="60" as="geometry" />
        </mxCell>
        <mxCell id="zdYyL7F6LFvU2UZnt1zR-36" value="Enemy Damage Player" style="rounded=1;whiteSpace=wrap;html=1;" parent="1" vertex="1">
          <mxGeometry x="1135" y="1780" width="130" height="60" as="geometry" />
        </mxCell>
        <mxCell id="zdYyL7F6LFvU2UZnt1zR-37" value="" style="endArrow=classic;html=1;rounded=0;exitX=0.5;exitY=1;exitDx=0;exitDy=0;entryX=0.5;entryY=0;entryDx=0;entryDy=0;" parent="1" source="zdYyL7F6LFvU2UZnt1zR-32" target="zdYyL7F6LFvU2UZnt1zR-36" edge="1">
          <mxGeometry relative="1" as="geometry">
            <mxPoint x="1214.52" y="1700" as="sourcePoint" />
            <mxPoint x="1214.52" y="1740" as="targetPoint" />
          </mxGeometry>
        </mxCell>
        <mxCell id="zdYyL7F6LFvU2UZnt1zR-38" value="Damage Interval" style="edgeLabel;resizable=0;html=1;;align=center;verticalAlign=middle;" parent="zdYyL7F6LFvU2UZnt1zR-37" connectable="0" vertex="1">
          <mxGeometry relative="1" as="geometry">
            <mxPoint x="40" as="offset" />
          </mxGeometry>
        </mxCell>
        <mxCell id="zdYyL7F6LFvU2UZnt1zR-39" style="edgeStyle=orthogonalEdgeStyle;rounded=0;orthogonalLoop=1;jettySize=auto;html=1;" parent="1" source="zdYyL7F6LFvU2UZnt1zR-40" target="zdYyL7F6LFvU2UZnt1zR-32" edge="1">
          <mxGeometry relative="1" as="geometry" />
        </mxCell>
        <mxCell id="zdYyL7F6LFvU2UZnt1zR-40" value="Enemy Health" style="rounded=1;whiteSpace=wrap;html=1;" parent="1" vertex="1">
          <mxGeometry x="815" y="1680" width="130" height="60" as="geometry" />
        </mxCell>
        <mxCell id="zdYyL7F6LFvU2UZnt1zR-41" value="" style="endArrow=classic;html=1;rounded=0;exitX=1;exitY=0.5;exitDx=0;exitDy=0;entryX=0;entryY=0.5;entryDx=0;entryDy=0;" parent="1" source="zdYyL7F6LFvU2UZnt1zR-20" target="zdYyL7F6LFvU2UZnt1zR-40" edge="1">
          <mxGeometry relative="1" as="geometry">
            <mxPoint x="675" y="1720" as="sourcePoint" />
            <mxPoint x="775" y="1720" as="targetPoint" />
          </mxGeometry>
        </mxCell>
        <mxCell id="zdYyL7F6LFvU2UZnt1zR-42" value="Player DMG&amp;nbsp;" style="edgeLabel;resizable=0;html=1;;align=center;verticalAlign=middle;" parent="zdYyL7F6LFvU2UZnt1zR-41" connectable="0" vertex="1">
          <mxGeometry relative="1" as="geometry" />
        </mxCell>
        <mxCell id="zdYyL7F6LFvU2UZnt1zR-43" value="" style="endArrow=classic;html=1;rounded=0;entryX=1;entryY=0.5;entryDx=0;entryDy=0;exitX=0.5;exitY=1;exitDx=0;exitDy=0;edgeStyle=orthogonalEdgeStyle;" parent="1" source="zdYyL7F6LFvU2UZnt1zR-36" target="zdYyL7F6LFvU2UZnt1zR-18" edge="1">
          <mxGeometry relative="1" as="geometry">
            <mxPoint x="705" y="1820" as="sourcePoint" />
            <mxPoint x="805" y="1820" as="targetPoint" />
          </mxGeometry>
        </mxCell>
        <mxCell id="zdYyL7F6LFvU2UZnt1zR-44" value="Enemy Damage" style="edgeLabel;resizable=0;html=1;;align=center;verticalAlign=middle;" parent="zdYyL7F6LFvU2UZnt1zR-43" connectable="0" vertex="1">
          <mxGeometry relative="1" as="geometry" />
        </mxCell>
        <mxCell id="D1VL24Hz7TWNhoNPvJpL-1" value="&lt;p class=&quot;MsoNormal&quot;&gt;&lt;span lang=&quot;DA&quot;&gt;Flowchart af vores tidligere spil “Cryptic Cpnquest”&lt;/span&gt;&lt;/p&gt;" style="rounded=0;whiteSpace=wrap;html=1;fillColor=#FFF2CC;" vertex="1" parent="1">
          <mxGeometry x="827" y="1300" width="170" height="65" as="geometry" />
        </mxCell>
      </root>
    </mxGraphModel>
  </diagram>
</mxfile>
